<?xml version="1.0" encoding="utf-8"?>
<!-- Generator: Adobe Illustrator 27.0.1, SVG Export Plug-In . SVG Version: 6.00 Build 0)  -->
<svg version="1.1" id="Layer_1" xmlns="http://www.w3.org/2000/svg" xmlns:xlink="http://www.w3.org/1999/xlink" x="0px" y="0px"
	 viewBox="0 0 100 100" style="enable-background:new 0 0 100 100;" xml:space="preserve">
<g>
	<path d="M29.5,46.9c0-2.5,0-5,0-7.4c0-1.5,0.7-2.7,2.1-3.4c4-2,7.9-4,11.9-6.1c2-1,4.1-2.1,6.1-3.1c1.2-0.6,2.4-0.2,3.5,0.4
		c3.1,1.6,6.1,3.2,9.2,4.8c2.4,1.3,4.8,2.5,7.2,3.8c1.4,0.7,2.1,2,2.1,3.5c0.1,5,0,10,0,15c0,1.3-0.7,2.3-1.8,2.9
		c-5,2.7-9.9,5.2-14.9,7.9c-0.8,0.4-1.7,0.9-2.5,1.3c-1.6,0.7-3.1,0.6-4.6-0.2c-3.2-1.7-6.4-3.5-9.6-5.2c-2.3-1.3-4.7-2.4-7-3.8
		c-1.1-0.6-1.7-1.7-1.7-3C29.4,51.8,29.4,49.4,29.5,46.9C29.4,46.9,29.4,46.9,29.5,46.9z"/>
	<path d="M71.6,76.7c0,3.1,0,6.2,0,9.3c0,2.5-1.2,4.2-3.3,5.4c-3.2,1.8-6.5,3.7-9.7,5.5c-1.5,0.8-3,1.7-4.6,2.3
		c-1.9,0.8-4,1-6.1,0.4c-2-0.5-3.7-1.5-5.4-2.5c-3-1.7-5.9-3.4-8.9-5.2c-1.1-0.7-2.3-1.2-3.2-2.2c-0.9-1.1-1.3-2.5-1.3-3.9
		c0-6.3,0-12.6,0-18.9c0-1.7,1.4-2.5,2.9-1.7c3.8,2.1,7.6,4.1,11.4,6.2c1.2,0.7,2.4,1.4,3.7,2c2.1,1,4.3,1,6.4-0.1
		c3.6-1.9,7.2-3.8,10.8-5.7c1.5-0.8,3-1.7,4.6-2.4c1.6-0.8,2.7,0,2.8,1.7C71.6,70.2,71.6,73.5,71.6,76.7
		C71.6,76.7,71.6,76.7,71.6,76.7z"/>
	<path d="M3.9,33.8c0-2.3,0-4.5,0-6.8c0-3.7,1.5-6.3,4.9-7.9c4.4-2.1,8.8-4.3,13.3-6.5c1.5-0.7,2.9-0.5,4.3,0.3
		c2.7,1.5,5.4,3,8.1,4.5c2.3,1.3,4.6,2.5,7,3.7c0.1,0.1,0.3,0.2,0.4,0.3c0.7,0.6,0.8,1.4,0,1.9c-0.8,0.6-1.7,1-2.6,1.5
		c-3,1.5-5.9,3-8.9,4.6c-1.4,0.7-2.8,1.4-4.2,2.1c-1.7,0.9-2.7,2.4-3.1,4.2c-0.6,2.5-0.3,4.9-0.3,7.4c0,2.6,0.1,5.3,0.1,7.9
		c0,1.2-0.9,1.9-2,1.3c-2.4-1.3-4.8-2.5-7.3-3.8c-2.5-1.3-5.1-2.6-7.6-4C4.6,43.7,4,42.6,4,41.2C4,38.7,4,36.2,3.9,33.8
		C3.9,33.8,3.9,33.8,3.9,33.8z"/>
	<path d="M96.1,33.6c0,3,0,5.4,0,7.8c0,1.1-0.2,2.2-1,3c-0.5,0.5-1.2,0.9-1.8,1.2c-3.8,2.1-7.6,4.1-11.5,6.2
		c-0.4,0.2-0.8,0.5-1.2,0.7c-1.3,0.7-2.4,0.1-2.4-1.4c0-0.7,0-1.5,0-2.2c0-4,0-8.1,0-12.1c0-2-0.6-3.8-2.3-4.9
		c-0.9-0.6-1.9-1-2.8-1.5c-2-1.1-4-2.1-5.9-3.2c-2.3-1.2-4.6-2.3-6.8-3.5c-0.5-0.3-1-0.7-0.9-1.2c0.1-0.4,0.4-1,0.8-1.2
		c2.3-1.3,4.7-2.5,7.1-3.7c2.7-1.4,5.4-2.9,8.2-4.3c1.1-0.5,2.3-0.6,3.4-0.1c2.7,1.3,5.4,2.7,8,4c1.8,0.9,3.6,1.6,5.3,2.6
		c2,1.2,3.3,2.9,3.7,5.3C96.4,28,95.9,31.1,96.1,33.6z"/>
	<path d="M22.9,72.6c0,3.4,0,6.8,0,10.1c0,0.7-0.1,1.5-0.8,1.8c-0.7,0.3-1.4,0.1-2-0.3c-1.9-1.2-3.8-2.3-5.7-3.4
		c-2.4-1.4-4.8-2.8-7.2-4.2c-1.7-1.1-2.9-2.6-3-4.7C4,69.1,4,66.4,3.9,63.6c0-3.3-0.1-6.6,0-9.8c0-2,1.8-2.7,3.4-1.8
		c4,2.1,8,4.4,12,6.6c0.9,0.5,1.9,1.1,2.7,1.8c0.6,0.5,0.8,1.3,0.8,2.1C22.9,65.9,22.8,69.2,22.9,72.6
		C22.8,72.6,22.8,72.6,22.9,72.6z"/>
	<path d="M78.1,72.8c0-3.4,0-6.7,0-10.1c0-1.2,0.6-2.3,1.7-2.9c3.7-2,7.4-4.1,11.1-6.1c0.8-0.4,1.5-0.8,2.3-1.3
		c1.7-1,2.7-0.2,2.9,1.6c0,0.2,0,0.5,0,0.7c0,5.3,0.1,10.6,0,15.9c-0.1,2.9-1.2,5.3-3.8,6.9c-3.9,2.4-7.7,4.8-11.5,7.2
		c-1.3,0.8-2.2,0.4-2.5-1c-0.1-0.3-0.1-0.6-0.1-1C78.1,79.5,78.1,76.2,78.1,72.8C78.1,72.8,78.1,72.8,78.1,72.8z"/>
	<path d="M50.9,0c1.3,0,2.3,0.7,3.4,1.2c2.4,1.1,4.8,2.2,7.2,3.3c2.2,1,4.4,2.1,6.6,3.2c0.6,0.3,1.1,0.6,1.1,1.4
		c0,0.8-0.5,1.2-1.1,1.5c-3.8,2-7.6,4-11.4,6c-1.4,0.7-2.8,1.6-4.2,2.3c-0.9,0.5-1.9,0.4-2.9-0.1c-2.9-1.5-5.7-3.1-8.6-4.6
		c-2.6-1.4-5.2-2.8-7.7-4.2c-0.4-0.2-0.8-0.7-0.8-1.1c0-0.4,0.4-1,0.8-1.2c2.3-1.1,4.7-2.1,7.1-3.2c2-0.9,3.9-1.8,5.9-2.6
		c1.1-0.5,2.1-1,3.2-1.4C49.8,0.1,50.3,0.1,50.9,0z"/>
</g>
</svg>
